<?xml version="1.0" encoding="UTF-8" standalone="no"?>
<!-- Created with Inkscape (http://www.inkscape.org/) -->

<svg
   xmlns:dc="http://purl.org/dc/elements/1.1/"
   xmlns:cc="http://creativecommons.org/ns#"
   xmlns:rdf="http://www.w3.org/1999/02/22-rdf-syntax-ns#"
   xmlns:svg="http://www.w3.org/2000/svg"
   xmlns="http://www.w3.org/2000/svg"
   xmlns:xlink="http://www.w3.org/1999/xlink"
   xmlns:sodipodi="http://sodipodi.sourceforge.net/DTD/sodipodi-0.dtd"
   xmlns:inkscape="http://www.inkscape.org/namespaces/inkscape"
   width="128"
   height="128"
   viewBox="0 0 128 128"
   version="1.1"
   id="svg8"
   inkscape:version="0.92.2 (5c3e80d, 2017-08-06)"
   sodipodi:docname="logo.svg"
   inkscape:export-filename="C:\Users\hhtat\repos\BurmeseVirtualKeyboard\design\logo_256x256.png"
   inkscape:export-xdpi="192"
   inkscape:export-ydpi="192">
  <defs
     id="defs2" />
  <sodipodi:namedview
     id="base"
     pagecolor="#ffffff"
     bordercolor="#666666"
     borderopacity="1.0"
     inkscape:pageopacity="0.0"
     inkscape:pageshadow="2"
     inkscape:zoom="2.8"
     inkscape:cx="62.08792"
     inkscape:cy="47.030206"
     inkscape:document-units="px"
     inkscape:current-layer="layer1"
     showgrid="false"
     units="px"
     inkscape:pagecheckerboard="true"
     inkscape:window-width="1366"
     inkscape:window-height="715"
     inkscape:window-x="-8"
     inkscape:window-y="-8"
     inkscape:window-maximized="1" />
  <metadata
     id="metadata5">
    <rdf:RDF>
      <cc:Work
         rdf:about="">
        <dc:format>image/svg+xml</dc:format>
        <dc:type
           rdf:resource="http://purl.org/dc/dcmitype/StillImage" />
        <dc:title></dc:title>
      </cc:Work>
    </rdf:RDF>
  </metadata>
  <g
     inkscape:label="Layer 1"
     inkscape:groupmode="layer"
     id="layer1"
     transform="translate(0,-263.13332)">
    <path
       sodipodi:type="inkscape:offset"
       inkscape:radius="12"
       inkscape:original="M 40.71875 299.2168 C 36.725695 299.2168 33.04579 299.94596 29.677734 301.4043 C 26.344401 302.82791 23.461805 304.80707 21.03125 307.3418 C 18.600695 309.87652 16.707682 312.87934 15.353516 316.35156 C 13.999349 319.78906 13.322266 323.53906 13.322266 327.60156 C 13.322266 330.34462 13.634766 333.01888 14.259766 335.62305 C 14.919488 338.22721 15.822917 340.69314 16.96875 343.01953 C 18.149306 345.34592 19.521484 347.4974 21.083984 349.47656 C 22.681207 351.45573 24.416016 353.2105 26.291016 354.73828 L 31.134766 349.63281 C 29.711155 348.45226 28.393012 347.04601 27.177734 345.41406 C 25.962457 343.78212 24.902778 342.01128 24 340.10156 C 23.097222 338.19184 22.386068 336.1786 21.865234 334.06055 C 21.379123 331.94249 21.134766 329.80707 21.134766 327.6543 C 21.134766 324.5293 21.603516 321.6467 22.541016 319.00781 C 23.513238 316.3342 24.851346 314.04253 26.552734 312.13281 C 28.288845 310.18837 30.354167 308.67795 32.75 307.60156 C 35.180555 306.52517 37.836806 305.98828 40.71875 305.98828 C 43.600694 305.98828 46.238932 306.52517 48.634766 307.60156 C 51.065321 308.67795 53.132596 310.18837 54.833984 312.13281 C 56.570095 314.04253 57.90625 316.3342 58.84375 319.00781 C 59.815972 321.6467 60.302734 324.5293 60.302734 327.6543 C 60.302734 329.80707 60.042318 331.94249 59.521484 334.06055 C 59.035373 336.1786 58.340278 338.19184 57.4375 340.10156 C 56.534722 342.01128 55.475043 343.78212 54.259766 345.41406 C 53.044488 347.04601 51.726345 348.45226 50.302734 349.63281 L 55.146484 354.73828 C 57.021484 353.2105 58.740234 351.45573 60.302734 349.47656 C 61.899957 347.4974 63.270182 345.34592 64.416016 343.01953 C 65.596571 340.69314 66.5 338.22721 67.125 335.62305 C 67.784722 333.01888 68.115234 330.34462 68.115234 327.60156 C 68.115234 326.59462 68.063151 325.57096 67.958984 324.5293 C 68.236762 321.89041 68.895833 319.44249 69.9375 317.18555 C 71.013889 314.9286 72.402127 312.96745 74.103516 311.30078 C 75.839627 309.63411 77.854818 308.33203 80.146484 307.39453 C 82.472873 306.45703 84.988932 305.98828 87.697266 305.98828 C 90.613932 305.98828 93.254123 306.54319 95.615234 307.6543 C 97.976345 308.76541 99.989583 310.27582 101.65625 312.18555 C 103.32292 314.09527 104.60699 316.33485 105.50977 318.9043 C 106.41254 321.47374 106.86523 324.21615 106.86523 327.13281 C 106.86523 330.04948 106.39648 332.79384 105.45898 335.36328 C 104.55621 337.93273 103.25412 340.17231 101.55273 342.08203 C 99.886068 343.99175 97.870877 345.50217 95.509766 346.61328 C 93.148655 347.72439 90.510417 348.2793 87.59375 348.2793 C 85.024306 348.2793 82.680556 347.94878 80.5625 347.28906 L 78.634766 353.80078 C 81.481988 354.63411 84.502821 355.05078 87.697266 355.05078 C 91.655599 355.05078 95.285373 354.32161 98.583984 352.86328 C 101.8826 351.40495 104.71115 349.42578 107.07227 346.92578 C 109.4681 344.39106 111.32704 341.42231 112.64648 338.01953 C 114.00065 334.61675 114.67773 330.97092 114.67773 327.08203 C 114.67773 323.22786 114.01671 319.6161 112.69727 316.24805 C 111.41254 312.87999 109.58963 309.92925 107.22852 307.39453 C 104.8674 304.85981 102.02083 302.86263 98.6875 301.4043 C 95.388889 299.94596 91.725043 299.2168 87.697266 299.2168 C 84.95421 299.2168 82.402127 299.54731 80.041016 300.20703 C 77.679905 300.83203 75.510417 301.75152 73.53125 302.9668 C 71.586806 304.14735 69.850043 305.58767 68.322266 307.28906 C 66.794488 308.99045 65.476345 310.90148 64.365234 313.01953 C 63.219401 310.9362 61.82921 309.0612 60.197266 307.39453 C 58.600043 305.69314 56.795139 304.23481 54.78125 303.01953 C 52.767361 301.80425 50.579861 300.86675 48.21875 300.20703 C 45.857639 299.54731 43.357639 299.2168 40.71875 299.2168 z "
       xlink:href="#text817"
       style="font-style:normal;font-variant:normal;font-weight:normal;font-stretch:normal;font-size:106.66666412px;line-height:1.25;font-family:sans-serif;-inkscape-font-specification:'sans-serif, Normal';font-variant-ligatures:normal;font-variant-caps:normal;font-variant-numeric:normal;font-feature-settings:normal;text-align:start;letter-spacing:0px;word-spacing:0px;writing-mode:lr-tb;text-anchor:start;fill:#ffffff;fill-opacity:1;stroke:none"
       id="path825"
       inkscape:href="#text817"
       d="m 40.71875,285.2168 c -5.685795,0 -11.360275,1.07978 -16.570312,3.33008 -4.949599,2.11902 -9.492901,5.21585 -13.222657,9.10546 -3.7345598,3.89461 -6.6374844,8.55911 -8.6035154,13.5918 -2.03743134,5.181 -2.99999998,10.7475 -2.99999998,16.35742 0,3.80635 0.43877362,7.59971 1.32421876,11.28906 a 14.0014,14.0014 0 0 0 0.0429687,0.16993 c 0.89024668,3.51412 2.13101078,6.91697 3.72070308,10.14453 a 14.0014,14.0014 0 0 0 0.074219,0.15039 c 1.5853531,3.12408 3.4613243,6.07354 5.611328,8.79687 a 14.0014,14.0014 0 0 0 0.09375,0.11719 c 2.168784,2.68741 4.591462,5.14968 7.257813,7.32227 a 14.0014,14.0014 0 0 0 19,-1.2168 l 4.271484,-4.50195 4.271484,4.50195 a 14.0014,14.0014 0 0 0 19,1.2168 c 1.248983,-1.01769 2.429185,-2.1158 3.566407,-3.25782 a 14.0014,14.0014 0 0 0 7.146484,4.90235 c 4.201879,1.22981 8.582295,1.81445 12.994141,1.81445 5.677639,0 11.352888,-1.08653 16.546874,-3.38281 4.87429,-2.15494 9.34177,-5.25066 13.00195,-9.125 l 0.002,-0.002 c 3.64617,-3.85809 6.49486,-8.45266 8.42383,-13.40625 2.01593,-5.08861 3.00585,-10.56 3.00585,-16.05274 0,-5.43375 -0.96316,-10.84311 -2.92773,-15.88086 -1.88583,-4.92189 -4.68656,-9.4948 -8.27734,-13.34961 -3.67977,-3.95031 -8.20667,-7.0936 -13.14844,-9.25976 -5.220459,-2.30381 -10.917813,-3.375 -16.626954,-3.375 -3.832184,0 -7.63982,0.46697 -11.320313,1.48437 -3.553017,0.94874 -6.989997,2.3899 -10.140625,4.32031 -0.734593,0.447 -1.399128,1.00019 -2.101562,1.49805 -0.708931,-0.49384 -1.381585,-1.04007 -2.121094,-1.48633 -3.126621,-1.88675 -6.513969,-3.32887 -10.027344,-4.31054 -3.660735,-1.02285 -7.459727,-1.50586 -11.267578,-1.50586 z m 29.482422,12.38281 0.203125,0.21289 c -0.03217,-0.0343 -0.07122,-0.0616 -0.103516,-0.0957 -0.03574,-0.0368 -0.06372,-0.0805 -0.09961,-0.11719 z M 40.71875,319.98828 c 1.143196,0 1.699035,0.16775 2.177734,0.38281 a 14.0014,14.0014 0 0 0 0.06836,0.0312 c 0.684251,0.30303 0.96747,0.53035 1.333984,0.94922 a 14.0014,14.0014 0 0 0 0.175781,0.19922 c 0.391208,0.43033 0.768545,0.9786 1.158203,2.08984 a 14.0014,14.0014 0 0 0 0.07422,0.20704 c 0.352924,0.95793 0.595703,2.13543 0.595703,3.80664 0,1.02373 -0.11875,2.01247 -0.376953,3.0625 a 14.0014,14.0014 0 0 0 -0.04883,0.21289 c -0.267895,1.16725 -0.631029,2.20649 -1.095703,3.18945 -0.522832,1.10599 -1.103908,2.06599 -1.75,2.93359 -0.619938,0.8325 -1.17884,1.39874 -1.666016,1.80274 a 14.0014,14.0014 0 0 0 -0.644531,0.5918 14.0014,14.0014 0 0 0 -0.648437,-0.5918 c -0.487176,-0.404 -1.046078,-0.97024 -1.666016,-1.80274 -0.646092,-0.8676 -1.227168,-1.8276 -1.75,-2.93359 -0.477084,-1.00921 -0.855697,-2.09851 -1.158203,-3.29883 -0.238689,-1.07511 -0.363281,-2.10913 -0.363281,-3.16601 0,-1.70453 0.242944,-2.92266 0.589843,-3.91211 0.429513,-1.15806 0.86157,-1.82135 1.277344,-2.28907 0.447817,-0.50055 0.810312,-0.76383 1.451172,-1.05664 0.54703,-0.2394 1.13893,-0.4082 2.265625,-0.4082 z m 46.978516,0 c 1.140953,0 1.609171,0.17029 1.957031,0.33399 0.712503,0.33529 1.054373,0.61145 1.453125,1.06835 0.443604,0.5083 0.823462,1.10152 1.193359,2.1543 0.355245,1.01109 0.564453,2.11984 0.564453,3.58789 0,1.41667 -0.206277,2.46604 -0.558593,3.43164 A 14.0014,14.0014 0 0 0 92.25,330.72266 c -0.350568,0.99778 -0.705355,1.54734 -1.150391,2.04687 a 14.0014,14.0014 0 0 0 -0.0957,0.10742 c -0.3952,0.45284 -0.739913,0.73181 -1.455078,1.06836 -0.350551,0.16497 -0.814123,0.33399 -1.955078,0.33399 -1.368852,0 -2.281257,-0.17492 -2.867188,-0.35742 a 14.0014,14.0014 0 0 0 -2.96289,-0.57227 c 0.23385,-1.90414 0.351562,-3.82469 0.351562,-5.74805 0,-0.69792 -0.07219,-1.39421 -0.105468,-2.09179 0.140848,-0.91597 0.324441,-1.72148 0.617187,-2.3711 0.389495,-0.79395 0.773388,-1.31937 1.232422,-1.77734 0.432369,-0.4064 0.859988,-0.69948 1.554687,-0.98828 0.574258,-0.22832 1.206823,-0.38477 2.283204,-0.38477 z m -6.958985,18.90234 -0.04297,0.16993 c 0.006,-0.0238 0.0077,-0.0485 0.01367,-0.0723 0.008,-0.0331 0.02135,-0.0645 0.0293,-0.0977 z m -3.763672,10.31446 -0.07422,0.15039 c 0.01319,-0.026 0.02201,-0.0541 0.03516,-0.0801 0.0119,-0.0241 0.0272,-0.0462 0.03906,-0.0703 z m -5.683593,8.94726 -0.09375,0.11719 c 0.01498,-0.0186 0.02606,-0.04 0.04102,-0.0586 0.01635,-0.0206 0.03642,-0.0379 0.05273,-0.0586 z" />
    <path
       sodipodi:type="inkscape:offset"
       inkscape:radius="2"
       inkscape:original="M 40.71875 299.2168 C 36.725695 299.2168 33.04579 299.94596 29.677734 301.4043 C 26.344401 302.82791 23.461805 304.80707 21.03125 307.3418 C 18.600695 309.87652 16.707682 312.87934 15.353516 316.35156 C 13.999349 319.78906 13.322266 323.53906 13.322266 327.60156 C 13.322266 330.34462 13.634766 333.01888 14.259766 335.62305 C 14.919488 338.22721 15.822917 340.69314 16.96875 343.01953 C 18.149306 345.34592 19.521484 347.4974 21.083984 349.47656 C 22.681207 351.45573 24.416016 353.2105 26.291016 354.73828 L 31.134766 349.63281 C 29.711155 348.45226 28.393012 347.04601 27.177734 345.41406 C 25.962457 343.78212 24.902778 342.01128 24 340.10156 C 23.097222 338.19184 22.386068 336.1786 21.865234 334.06055 C 21.379123 331.94249 21.134766 329.80707 21.134766 327.6543 C 21.134766 324.5293 21.603516 321.6467 22.541016 319.00781 C 23.513238 316.3342 24.851346 314.04253 26.552734 312.13281 C 28.288845 310.18837 30.354167 308.67795 32.75 307.60156 C 35.180555 306.52517 37.836806 305.98828 40.71875 305.98828 C 43.600694 305.98828 46.238932 306.52517 48.634766 307.60156 C 51.065321 308.67795 53.132596 310.18837 54.833984 312.13281 C 56.570095 314.04253 57.90625 316.3342 58.84375 319.00781 C 59.815972 321.6467 60.302734 324.5293 60.302734 327.6543 C 60.302734 329.80707 60.042318 331.94249 59.521484 334.06055 C 59.035373 336.1786 58.340278 338.19184 57.4375 340.10156 C 56.534722 342.01128 55.475043 343.78212 54.259766 345.41406 C 53.044488 347.04601 51.726345 348.45226 50.302734 349.63281 L 55.146484 354.73828 C 57.021484 353.2105 58.740234 351.45573 60.302734 349.47656 C 61.899957 347.4974 63.270182 345.34592 64.416016 343.01953 C 65.596571 340.69314 66.5 338.22721 67.125 335.62305 C 67.784722 333.01888 68.115234 330.34462 68.115234 327.60156 C 68.115234 326.59462 68.063151 325.57096 67.958984 324.5293 C 68.236762 321.89041 68.895833 319.44249 69.9375 317.18555 C 71.013889 314.9286 72.402127 312.96745 74.103516 311.30078 C 75.839627 309.63411 77.854818 308.33203 80.146484 307.39453 C 82.472873 306.45703 84.988932 305.98828 87.697266 305.98828 C 90.613932 305.98828 93.254123 306.54319 95.615234 307.6543 C 97.976345 308.76541 99.989583 310.27582 101.65625 312.18555 C 103.32292 314.09527 104.60699 316.33485 105.50977 318.9043 C 106.41254 321.47374 106.86523 324.21615 106.86523 327.13281 C 106.86523 330.04948 106.39648 332.79384 105.45898 335.36328 C 104.55621 337.93273 103.25412 340.17231 101.55273 342.08203 C 99.886068 343.99175 97.870877 345.50217 95.509766 346.61328 C 93.148655 347.72439 90.510417 348.2793 87.59375 348.2793 C 85.024306 348.2793 82.680556 347.94878 80.5625 347.28906 L 78.634766 353.80078 C 81.481988 354.63411 84.502821 355.05078 87.697266 355.05078 C 91.655599 355.05078 95.285373 354.32161 98.583984 352.86328 C 101.8826 351.40495 104.71115 349.42578 107.07227 346.92578 C 109.4681 344.39106 111.32704 341.42231 112.64648 338.01953 C 114.00065 334.61675 114.67773 330.97092 114.67773 327.08203 C 114.67773 323.22786 114.01671 319.6161 112.69727 316.24805 C 111.41254 312.87999 109.58963 309.92925 107.22852 307.39453 C 104.8674 304.85981 102.02083 302.86263 98.6875 301.4043 C 95.388889 299.94596 91.725043 299.2168 87.697266 299.2168 C 84.95421 299.2168 82.402127 299.54731 80.041016 300.20703 C 77.679905 300.83203 75.510417 301.75152 73.53125 302.9668 C 71.586806 304.14735 69.850043 305.58767 68.322266 307.28906 C 66.794488 308.99045 65.476345 310.90148 64.365234 313.01953 C 63.219401 310.9362 61.82921 309.0612 60.197266 307.39453 C 58.600043 305.69314 56.795139 304.23481 54.78125 303.01953 C 52.767361 301.80425 50.579861 300.86675 48.21875 300.20703 C 45.857639 299.54731 43.357639 299.2168 40.71875 299.2168 z "
       xlink:href="#text817"
       style="font-style:normal;font-variant:normal;font-weight:normal;font-stretch:normal;font-size:106.66666412px;line-height:1.25;font-family:sans-serif;-inkscape-font-specification:'sans-serif, Normal';font-variant-ligatures:normal;font-variant-caps:normal;font-variant-numeric:normal;font-feature-settings:normal;text-align:start;letter-spacing:0px;word-spacing:0px;writing-mode:lr-tb;text-anchor:start;fill:#000000;fill-opacity:1;stroke:none"
       id="path823"
       inkscape:href="#text817"
       d="m 40.71875,294.2168 c -4.596786,0 -8.988203,0.85496 -13.013672,2.5957 -3.910829,1.67186 -7.388302,4.04938 -10.283203,7.06836 -2.896702,3.02084 -5.150036,6.61847 -6.722656,10.64844 -1.5979163,4.0599 -2.3769534,8.45769 -2.3769534,13.07226 0,3.12281 0.3581558,6.19576 1.0761719,9.1875 a 5.0005,5.0005 0 0 0 0.013672,0.0625 c 0.7420526,2.92915 1.7659586,5.72872 3.0703126,8.37696 a 5.0005,5.0005 0 0 0 0.02734,0.0527 c 1.325126,2.61128 2.878067,5.04803 4.65039,7.29297 a 5.0005,5.0005 0 0 0 0.0332,0.043 c 1.801352,2.23211 3.781828,4.23998 5.939453,5.99804 a 5.0005,5.0005 0 0 0 6.785157,-0.43554 l 4.84375,-5.10547 a 5.0005,5.0005 0 0 0 -0.435547,-7.29102 c -1.08917,-0.90321 -2.136015,-2.00904 -3.138672,-3.35547 -1.011997,-1.35896 -1.900886,-2.84021 -2.667969,-4.46289 -0.750315,-1.5872 -1.341943,-3.26753 -1.785156,-5.05859 -0.39855,-1.7482 -0.599609,-3.48934 -0.599609,-5.25195 0,-2.61635 0.38698,-4.90437 1.111328,-6.95118 0.780964,-2.14261 1.795295,-3.84552 3.037109,-5.24023 1.276602,-1.42979 2.727206,-2.49186 4.5,-3.29101 1.758207,-0.77741 3.677695,-1.1836 5.935547,-1.1836 2.260963,0 4.156044,0.40505 5.867188,1.17383 a 5.0005,5.0005 0 0 0 0.02344,0.0117 c 1.806875,0.80019 3.23629,1.85236 4.460937,3.25195 a 5.0005,5.0005 0 0 0 0.06445,0.0703 c 1.255788,1.38137 2.248392,3.0504 2.990234,5.16602 a 5.0005,5.0005 0 0 0 0.02734,0.0742 c 0.751044,2.03855 1.15039,4.31218 1.15039,6.91797 0,1.74954 -0.209681,3.47627 -0.636718,5.21289 a 5.0005,5.0005 0 0 0 -0.01758,0.0742 c -0.408177,1.77848 -0.984157,3.4447 -1.730469,5.02343 -0.767083,1.62268 -1.655972,3.10393 -2.667969,4.46289 -1.002657,1.34643 -2.049502,2.45226 -3.138672,3.35547 a 5.0005,5.0005 0 0 0 -0.435547,7.29102 l 4.84375,5.10547 a 5.0005,5.0005 0 0 0 6.785157,0.43554 c 2.162091,-1.7617 4.131495,-3.78071 5.904296,-6.02343 1.818392,-2.25675 3.382314,-4.7119 4.679688,-7.3418 1.349636,-2.66555 2.381611,-5.49029 3.091797,-8.44336 0.75476,-2.99483 1.134765,-6.07579 1.134765,-9.20508 0,-0.91805 -0.06762,-1.84849 -0.140625,-2.77929 0.236224,-2.02447 0.725815,-3.83871 1.486329,-5.49805 0.837397,-1.75143 1.867041,-3.19633 3.128906,-4.43555 1.27128,-1.21526 2.711165,-2.154 4.435547,-2.86133 1.70042,-0.68379 3.544461,-1.03906 5.671875,-1.03906 2.282483,0 4.146969,0.41671 5.789062,1.18945 1.772323,0.83404 3.188504,1.90406 4.402344,3.29493 1.229861,1.40921 2.191828,3.06206 2.904298,5.08984 0.70722,2.01289 1.07226,4.17101 1.07226,6.57031 0,2.38096 -0.37501,4.52094 -1.10351,6.51758 a 5.0005,5.0005 0 0 0 -0.0195,0.0547 c -0.70556,2.00814 -1.669185,3.6447 -2.921878,5.05078 a 5.0005,5.0005 0 0 0 -0.03516,0.0391 c -1.212568,1.38941 -2.631023,2.46044 -4.404297,3.29492 -1.643053,0.7732 -3.504625,1.18946 -5.787109,1.18946 -2.140661,0 -3.974053,-0.27439 -5.544922,-0.76368 a 5.0005,5.0005 0 0 0 -6.28125,3.35352 l -1.927734,6.51172 a 5.0005,5.0005 0 0 0 3.390625,6.21875 c 3.331028,0.97493 6.837566,1.45117 10.466797,1.45117 4.572371,0 8.932672,-0.85763 12.908204,-2.61523 3.86109,-1.70701 7.27465,-4.08366 10.09961,-7.07422 2.84315,-3.00798 5.05669,-6.55853 6.59375,-10.51563 1.59015,-4.00441 2.3789,-8.30276 2.3789,-12.76367 0,-4.41603 -0.76796,-8.66805 -2.3164,-12.63086 -1.49926,-3.92438 -3.67316,-7.4574 -6.47461,-10.46484 -2.83185,-3.04006 -6.27846,-5.44528 -10.18555,-7.15625 -3.985245,-1.76057 -8.37552,-2.61328 -13.003904,-2.61328 -3.13137,0 -6.131839,0.37833 -8.964844,1.16601 -2.782089,0.73939 -5.401906,1.84285 -7.796875,3.31055 -0.0012,7.5e-4 -0.0027,0.001 -0.0039,0.002 -2.356104,1.43098 -4.481942,3.19575 -6.330079,5.25391 -0.135759,0.15119 -0.244098,0.32661 -0.376953,0.48047 -0.146733,-0.15695 -0.26786,-0.33636 -0.417968,-0.49024 -1.899878,-2.01732 -4.057923,-3.76286 -6.441407,-5.20117 -2.411293,-1.45509 -5.028147,-2.57295 -7.800781,-3.34766 -2.825262,-0.7894 -5.789328,-1.17382 -8.845703,-1.17382 z" />
    <text
       xml:space="preserve"
       style="font-style:normal;font-variant:normal;font-weight:normal;font-stretch:normal;font-size:106.66666412px;line-height:1.25;font-family:sans-serif;-inkscape-font-specification:'sans-serif, Normal';font-variant-ligatures:normal;font-variant-caps:normal;font-variant-numeric:normal;font-feature-settings:normal;text-align:start;letter-spacing:0px;word-spacing:0px;writing-mode:lr-tb;text-anchor:start;fill:#000000;fill-opacity:1;stroke:none"
       x="7.0729179"
       y="353.79999"
       id="text817"><tspan
         sodipodi:role="line"
         id="tspan815"
         x="7.0729179"
         y="353.79999">က</tspan></text>
  </g>
</svg>
